<svg width="80" height="79" viewBox="0 0 80 79" fill="none" xmlns="http://www.w3.org/2000/svg">
<mask id="mask0_301_64" style="mask-type:luminance" maskUnits="userSpaceOnUse" x="0" y="0" width="80" height="79">
<path d="M79.6602 0H0V79H79.6602V0Z" fill="#EAE7C5"/>
</mask>
<g mask="url(#mask0_301_64)">
<mask id="mask1_301_64" style="mask-type:luminance" maskUnits="userSpaceOnUse" x="0" y="0" width="80" height="79">
<path d="M79.6602 0H0V79H79.6602V0Z" fill="#EAE7C5"/>
</mask>
<g mask="url(#mask1_301_64)">
<mask id="mask2_301_64" style="mask-type:luminance" maskUnits="userSpaceOnUse" x="0" y="0" width="80" height="79">
<path d="M79.6602 0H0V79H79.6602V0Z" fill="#EAE7C5"/>
</mask>
<g mask="url(#mask2_301_64)">
<path d="M67.4046 7.59616H45.9576V10.6346H42.8938V28.8654H39.8299V31.9039H33.7022V34.9423H27.5745V37.9808H24.5107V41.0192H18.383V37.9808H15.3191V34.9423H12.2553V28.8654H9.19141V44.0577H12.2553V47.0962H18.383V50.1346H24.5107V53.1731H27.5745V56.2115H30.6384V71.4039H36.7661V68.3654H33.7022V65.3269H36.7661V62.2885H39.8299V59.25H42.8938V62.2885H45.9576V71.4039H52.0853V68.3654H49.0215V56.2115H52.0853V53.1731H55.1492V47.0962H58.2131V41.0217H61.2769V44.0601H64.3408V37.9832H58.2131V28.8654H67.4046V22.7885H64.3408V25.8269H61.2769V22.7885H58.2131V25.8269H55.1492V22.7885H58.2131V19.75H61.2769V22.7885H64.3408V19.75H67.4046V22.7885H70.4685V10.6346H67.4046V7.59616ZM52.0853 13.6731H49.0215V10.6346H52.0853V13.6731Z" fill="black"/>
</g>
</g>
</g>
</svg>
